<?xml version="1.0" standalone="no"?>
<!DOCTYPE svg PUBLIC "-//W3C//DTD SVG 20010904//EN"
 "http://www.w3.org/TR/2001/REC-SVG-20010904/DTD/svg10.dtd">
<svg version="1.0" xmlns="http://www.w3.org/2000/svg"
 width="297.000000pt" height="364.000000pt" viewBox="0 0 297.000000 364.000000"
 preserveAspectRatio="xMidYMid meet">

<g transform="translate(0.000000,364.000000) scale(0.100000,-0.100000)"
fill="#000000" stroke="none">
<path d="M864 3494 c-36 -86 -93 -264 -113 -359 -28 -125 -48 -220 -56 -263
-4 -20 -26 -52 -55 -82 -27 -28 -40 -45 -29 -40 33 18 21 -3 -38 -63 -32 -33
-49 -55 -37 -49 11 6 26 18 34 26 22 27 32 17 12 -11 -10 -16 -25 -39 -32 -53
l-13 -25 28 25 28 25 -15 -30 c-22 -42 -31 -76 -21 -74 34 6 61 -4 70 -24 36
-80 180 -207 270 -239 18 -7 33 -16 33 -21 0 -9 -12 -38 -50 -123 -24 -54
-141 -231 -177 -269 -60 -62 -260 -375 -311 -485 -54 -119 -72 -162 -72 -173
0 -7 -6 -21 -13 -32 -7 -11 -19 -40 -26 -65 -8 -25 -20 -66 -28 -92 -8 -26
-17 -62 -20 -80 -8 -52 -10 -62 -16 -78 -24 -61 -46 -134 -41 -142 3 -4 -2
-30 -10 -56 -10 -30 -16 -87 -17 -157 -1 -101 1 -114 25 -160 35 -65 45 -76
84 -99 48 -26 101 -28 226 -10 60 9 153 17 206 17 54 1 96 5 94 8 -1 3 32 -1
75 -9 l79 -15 -2 -46 -1 -46 50 -1 c34 -1 53 3 61 14 8 11 13 12 18 4 8 -13
37 -16 35 -4 -5 28 2 35 19 19 25 -23 42 -21 42 3 0 16 7 20 31 20 24 0 32 -6
40 -30 11 -31 23 -38 34 -20 5 8 11 7 21 -1 11 -9 19 -8 34 6 11 10 20 13 20
7 0 -5 8 -8 19 -5 10 3 22 0 25 -6 14 -21 25 -10 33 31 8 40 11 43 58 58 34
10 64 29 91 58 l42 43 48 -31 c30 -19 57 -29 69 -26 23 6 145 -13 161 -25 5
-4 20 -6 32 -2 13 3 22 1 22 -6 0 -7 26 -11 73 -11 54 0 68 -3 57 -11 -13 -9
-12 -10 3 -5 9 3 63 0 120 -6 126 -13 403 -12 477 3 103 21 146 61 122 114
-14 31 -52 50 -127 65 -76 15 -514 30 -660 23 -123 -6 -322 10 -338 26 -8 8
-7 20 5 44 29 56 58 159 58 203 0 23 4 44 9 46 4 2 10 29 13 60 2 31 1 55 -4
52 -4 -3 -8 10 -8 28 0 18 4 28 8 21 11 -18 13 113 2 207 -5 47 -12 104 -14
127 -3 23 -12 70 -21 105 -8 35 -14 72 -13 83 2 21 -5 81 -27 230 -8 50 -17
110 -20 135 -4 24 -11 53 -17 63 -5 10 -7 21 -4 24 2 3 0 17 -6 32 -5 14 -20
84 -32 154 l-23 128 21 15 c11 8 26 14 33 14 7 0 13 5 13 11 0 6 7 9 15 5 8
-3 15 -1 15 4 0 5 6 7 14 4 44 -17 273 148 333 241 18 28 37 55 43 62 5 7 10
22 11 35 0 13 3 17 6 11 2 -7 9 -13 14 -13 4 0 5 7 2 17 -5 12 -3 14 7 8 10
-6 12 -4 6 11 -4 10 -9 27 -11 37 -4 16 -2 17 13 5 15 -12 15 -11 -1 14 -22
36 -23 55 -1 37 15 -12 16 -11 9 11 -4 14 -15 30 -24 37 -9 6 -13 15 -9 19 5
4 18 -1 30 -12 13 -10 7 -2 -11 19 -19 20 -31 37 -26 37 4 0 1 8 -8 18 -13 15
-15 56 -16 292 0 182 -4 276 -11 278 -5 2 -10 18 -11 35 0 18 -4 40 -8 50 -6
17 -8 17 -33 -3 -15 -11 -83 -83 -153 -160 -144 -159 -184 -188 -278 -197 -57
-5 -64 -8 -60 -24 5 -16 -1 -19 -35 -19 -23 0 -43 4 -46 9 -11 16 -68 21 -137
10 -99 -15 -131 -3 -165 64 -14 29 -34 62 -45 73 -11 12 -21 31 -22 43 -1 11
-5 21 -10 21 -4 0 -6 4 -3 9 3 5 -1 12 -10 15 -10 4 -14 12 -10 22 6 15 4 15
-10 3 -16 -13 -16 -12 -4 11 7 14 9 22 5 18 -5 -5 -30 27 -58 70 -65 103 -64
102 -83 56z m909 -535 c93 -48 102 -156 19 -231 -51 -46 -107 -56 -167 -29
-58 25 -79 60 -79 127 0 62 20 97 74 125 39 21 119 25 153 8z m-633 -17 c50
-26 72 -74 68 -143 -3 -47 -9 -61 -34 -84 -31 -30 -83 -55 -111 -55 -42 0 -99
24 -130 55 -27 27 -33 41 -33 77 0 54 33 114 79 145 42 29 112 31 161 5z
m-550 -397 c0 -8 -4 -15 -10 -15 -5 0 -7 7 -4 15 4 8 8 15 10 15 2 0 4 -7 4
-15z m1159 -1585 c0 -10 -3 -8 -9 5 -12 27 -12 43 0 25 5 -8 9 -22 9 -30z
m-72 -382 c-3 -8 -6 -5 -6 6 -1 11 2 17 5 13 3 -3 4 -12 1 -19z"/>
<path d="M1656 2913 c-11 -11 -6 -97 7 -122 20 -40 37 -38 37 6 0 67 -25 134
-44 116z"/>
<path d="M1035 2881 c-17 -33 -21 -126 -6 -136 16 -9 33 33 38 95 6 67 -8 86
-32 41z"/>
<path d="M2080 2796 c0 -2 7 -7 16 -10 8 -3 12 -2 9 4 -6 10 -25 14 -25 6z"/>
<path d="M2320 2788 c-16 -7 -20 -12 -12 -15 8 -3 21 2 30 11 19 18 17 19 -18
4z"/>
<path d="M368 2733 c7 -3 16 -2 19 1 4 3 -2 6 -13 5 -11 0 -14 -3 -6 -6z"/>
<path d="M330 2500 c-8 -5 -12 -11 -9 -14 2 -3 11 -1 19 4 8 5 12 11 9 14 -2
3 -11 1 -19 -4z"/>
<path d="M2220 2332 c0 -15 24 -32 44 -32 18 0 19 1 1 20 -18 20 -45 27 -45
12z"/>
<path d="M552 2223 c-7 -2 -17 -13 -22 -23 -9 -16 -7 -18 12 -15 20 4 38 21
38 38 0 8 -8 8 -28 0z"/>
<path d="M2208 183 c6 -2 18 -2 25 0 6 3 1 5 -13 5 -14 0 -19 -2 -12 -5z"/>
</g>
</svg>
