<?xml version="1.0" encoding="UTF-8"?>
<svg id="logo" data-name="レイヤー 1" xmlns="http://www.w3.org/2000/svg" viewBox="0 0 1791 1124.21">
  <style>
    path {
      stroke: #2e4f89;
      stroke-width: 20px;
      fill: none;
      stroke-linecap: round;
      stroke-linejoin: round;
    }
  </style>
  <g>
    <path d="M1.67,531.57c0-10.91,0-26.99-1.67-26.99,33.49-6.32,72.85-34.46,101.32-44.79,35.17-15.51,82.9-44.79,120.58-58,20.1-8.04,37.68-17.8,56.94-25.84,16.75-6.89,33.49-17.23,56.1-18.95,4.19,4.59,10.05,9.19,15.91,13.78,4.19,9.76-6.7,17.8-11.72,24.69-8.37,10.91-18.42,20.67-28.47,31.01-.84,1.15,1.67,4.59,0,5.17-7.54,4.59-45.22,52.26-49.4,63.17-10.89,6.89-24.28,12.63-27.63,24.69,9.21,8.04,23.44-4.02,40.19,0,35.17-5.74,72.85-12.63,108.02-18.95,40.19-12.63,82.9-25.27,119.74-40.2,0,12.06,3.35,26.99-2.51,23.54-9.21,2.3-21.77,12.06-30.14,14.36-2.51.57-10.05,5.17-12.56,5.17-5.02,1.15-7.54,1.15-11.72,2.87-13.4,4.02-19.26,10.34-30.14,14.36-4.19,1.72-8.37,2.3-12.56,2.87-8.37,2.3-18.42,5.74-27.63,7.47-9.21,1.72-11.72,3.45-24.28,5.74-10.89,1.72-40.19,6.32-56.1,13.21-45.22,3.45-94.62,19.53-144.86,16.08-15.91-.57-30.98-7.46-48.56-8.04-10.89-7.47-22.61-15.51-40.19-19.53-4.19-7.46-4.19-16.08,0-23.54-12.56-2.3-12.56,4.02-20.1,5.17-2.51,4.02-15.07.58-15.91,5.74-10.05,4.02-22.61,8.04-22.61,5.74ZM189.23,505.73c12.56-7.47,50.24-40.2,52.75-53.98,10.89-2.87,14.23-22.4,24.28-25.27-.84-6.32.84-10.34,8.37-10.91-.84-3.45-1.67-6.89-8.37-5.74-.84,4.02-6.7,4.59-7.54,8.04-29.31,5.17-33.49,26.42-63.64,31.01-19.26,12.06-82.9,45.37-106.34,55.13,20.1,11.48,32.66,26.42,67.82,23.54,15.91-4.02,25.96-11.49,32.66-21.82Z M958.72,475.29c-14.23,5.17-30.14,19.52-43.54,24.12-14.23,4.59-10.88,8.61-25.12,13.78-14.23,5.17-25.12,12.63-39.35,17.8-7.54,2.3-16.75,2.3-24.28,5.17-8.37,3.45-10.05,6.32-20.1,5.74-14.23,9.76-40.19,6.89-51.91,18.38-29.31,2.3-49.4,1.15-77.03,4.59,0-5.74-16.75-1.15-23.45-2.87-.84-6.89-15.91-4.02-16.75-10.91-7.54-.58-.84-12.06-11.72-10.91-11.72-1.15-15.07,6.89-24.28,8.04-10.89,2.3-26.79,8.04-40.19,13.78-5.86,2.87-27.63,5.74-40.19,11.49-5.86,2.3-38.52,8.61-51.91,8.04,1.67,0-11.72-5.74-20.1-2.87-19.26-12.06-29.31-30.44-20.1-55.13,10.05-7.47,15.91-18.38,20.1-30.44,12.56-7.47,20.1-18.95,31.82-27.56,20.1-17.23,46.89-30.44,68.66-46.52,14.23-6.32,27.63-12.63,36-22.4,20.93-.57,26.79-10.91,40.19-16.08,15.91-5.17,36-6.89,44.38-16.65,36.84-3.45,60.29-16.08,96.29-19.52,29.31,4.02,41.87,24.12,31.82,47.09-6.7,5.17-11.72,11.49-23.45,13.78,1.67,5.74-8.37,4.02-8.37,8.04-.84,4.02-10.05,2.3-15.91,2.87-15.07-14.36,10.89-20.67,11.72-33.31-20.1-6.89-34.33,5.74-60.29,2.87-11.72,5.74-27.63,6.89-40.19,10.91-11.72,4.59-18.42,12.06-31.82,13.78-22.61,9.19-37.68,24.12-64.47,30.44-10.89,10.91-23.45,20.67-36,30.44-10.05,2.3-12.56,9.76-20.1,13.78-7.54,4.02-8.37,12.63-20.1,13.78-6.7,17.8-21.77,28.71-24.28,49.39,24.28,9.76,46.05-4.59,68.66-5.17,0-5.17,6.7-3.45,11.72-5.74,5.02-1.72,7.54-3.45,11.72-5.17,7.54-2.87,25.12-2.87,24.28-11.49,10.05.57,19.26.57,24.28-2.87,9.21-.57,7.54-9.19,20.1-8.04,3.35-11.49,14.24-17.8,15.91-30.44,8.37-6.32,20.1-10.34,20.1-21.82,32.66-7.47,33.49-36.18,80.38-33.31,10.05,2.87,10.05,12.06,15.91,16.65,2.51,17.23-19.26,17.8-20.1,33.31-12.56,4.59-20.1,13.78-27.63,21.82-10.89,2.87-16.75,8.61-24.28,13.78-5.86,4.02-21.77,5.74-15.91,16.65-4.19,9.76,17.58,2.87,20.1,8.04,6.7-2.3,16.75-1.15,24.28-2.3,13.4-2.87,23.45-.57,36-5.17,12.56-4.02,27.63-6.89,40.19-10.91,24.28-7.46,47.73-14.36,72.01-21.82,10.05-8.04,21.77-12.06,33.49-16.65,16.75-6.32,30.98-14.36,50.24-21.82,0,0,10.05,20.1,12.56,19.52Z M833.95,531.57c0-10.91,0-26.99-1.67-26.99,33.49-6.32,72.85-34.46,101.32-44.79,35.17-15.51,82.9-44.79,120.58-58,20.1-8.04,37.68-17.8,56.94-25.84,16.75-6.89,33.49-17.23,56.1-18.95,4.19,4.59,10.05,9.19,15.91,13.78,4.19,9.76-6.7,17.8-11.72,24.69-8.37,10.91-18.42,20.67-28.47,31.01-.84,1.15,1.67,4.59,0,5.17-7.54,4.59-45.22,52.26-49.4,63.17-10.88,6.89-24.28,12.63-27.63,24.69,9.21,8.04,23.45-4.02,40.19,0,35.17-5.74,72.85-12.63,108.01-18.95,40.19-12.63,82.9-25.27,119.74-40.2,0,12.06,3.35,26.99-2.51,23.54-9.21,2.3-21.77,12.06-30.14,14.36-2.51.57-10.05,5.17-12.56,5.17-5.02,1.15-7.54,1.15-11.72,2.87-13.4,4.02-19.26,10.34-30.14,14.36-4.19,1.72-8.37,2.3-12.56,2.87-8.37,2.3-18.42,5.74-27.63,7.47s-11.72,3.45-24.28,5.74c-10.89,1.72-40.19,6.32-56.1,13.21-45.22,3.45-94.62,19.53-144.86,16.08-15.91-.57-30.98-7.46-48.57-8.04-10.89-7.47-22.61-15.51-40.19-19.53-4.19-7.46-4.19-16.08,0-23.54-12.56-2.3-12.56,4.02-20.1,5.17-2.51,4.02-15.07.58-15.91,5.74-10.05,4.02-22.61,8.04-22.61,5.74ZM1021.52,505.73c12.56-7.47,50.24-40.2,52.75-53.98,10.88-2.87,14.23-22.4,24.28-25.27-.84-6.32.84-10.34,8.37-10.91-.84-3.45-1.67-6.89-8.37-5.74-.84,4.02-6.7,4.59-7.54,8.04-29.31,5.17-33.49,26.42-63.64,31.01-19.26,12.06-82.9,45.37-106.34,55.13,20.1,11.48,32.66,26.42,67.82,23.54,15.91-4.02,25.96-11.49,32.66-21.82Z M1791.01,475.29c-14.23,5.17-30.14,19.52-43.54,24.12-14.23,4.59-10.88,8.61-25.12,13.78-14.24,5.17-25.12,12.63-39.35,17.8-7.54,2.3-16.75,2.3-24.28,5.17-8.37,3.45-10.05,6.32-20.1,5.74-14.23,9.76-40.19,6.89-51.91,18.38-29.31,2.3-49.4,1.15-77.03,4.59,0-5.74-16.75-1.15-23.45-2.87-.84-6.89-15.91-4.02-16.75-10.91-7.54-.58-.84-12.06-11.72-10.91-11.72-1.15-15.07,6.89-24.28,8.04-10.88,2.3-26.79,8.04-40.19,13.78-5.86,2.87-27.63,5.74-40.19,11.49-5.86,2.3-38.52,8.61-51.92,8.04,1.67,0-11.72-5.74-20.1-2.87-19.26-12.06-29.31-30.44-20.1-55.13,10.05-7.47,15.91-18.38,20.1-30.44,12.56-7.47,20.1-18.95,31.82-27.56,20.1-17.23,46.89-30.44,68.66-46.52,14.23-6.32,27.63-12.63,36-22.4,20.93-.57,26.79-10.91,40.19-16.08,15.91-5.17,36-6.89,44.38-16.65,36.84-3.45,60.29-16.08,96.29-19.52,29.31,4.02,41.87,24.12,31.82,47.09-6.7,5.17-11.72,11.49-23.45,13.78,1.67,5.74-8.37,4.02-8.37,8.04-.84,4.02-10.05,2.3-15.91,2.87-15.07-14.36,10.89-20.67,11.72-33.31-20.1-6.89-34.33,5.74-60.29,2.87-11.72,5.74-27.63,6.89-40.19,10.91-11.72,4.59-18.42,12.06-31.82,13.78-22.61,9.19-37.68,24.12-64.47,30.44-10.89,10.91-23.45,20.67-36,30.44-10.05,2.3-12.56,9.76-20.1,13.78-7.54,4.02-8.37,12.63-20.1,13.78-6.7,17.8-21.77,28.71-24.28,49.39,24.28,9.76,46.05-4.59,68.66-5.17,0-5.17,6.7-3.45,11.72-5.74,5.02-1.72,7.54-3.45,11.72-5.17,7.54-2.87,25.12-2.87,24.28-11.49,10.05.57,19.26.57,24.28-2.87,9.21-.57,7.54-9.19,20.1-8.04,3.35-11.49,14.24-17.8,15.91-30.44,8.37-6.32,20.1-10.34,20.1-21.82,32.66-7.47,33.49-36.18,80.38-33.31,10.05,2.87,10.05,12.06,15.91,16.65,2.51,17.23-19.26,17.8-20.1,33.31-12.56,4.59-20.1,13.78-27.63,21.82-10.89,2.87-16.75,8.61-24.28,13.78-5.86,4.02-21.77,5.74-15.91,16.65-4.19,9.76,17.58,2.87,20.1,8.04,6.7-2.3,16.75-1.15,24.28-2.3,13.4-2.87,23.45-.57,36-5.17,12.56-4.02,27.63-6.89,40.19-10.91,24.28-7.46,47.73-14.36,72.01-21.82,10.05-8.04,21.77-12.06,33.49-16.65,16.75-6.32,30.98-14.36,50.24-21.82,0,0,10.05,20.1,12.56,19.52Z"/>
  </g>
  <rect x="275.34" y="329.3" width="22.93" height="55.12" fill="none"/>
  <rect x="268.82" y="337.27" width="3.07" height="0" fill="none"/>
</svg>