<?xml version="1.0" encoding="UTF-8"?>
<svg id="_レイヤー_1" data-name="レイヤー 1" xmlns="http://www.w3.org/2000/svg" viewBox="0 0 102.67 86.93">
  <path d="M.1,37.39c0-.91,0-2.26-.1-2.26,1.92-.53,4.18-2.88,5.81-3.74,2.02-1.3,4.75-3.74,6.91-4.85,1.15-.67,2.16-1.49,3.26-2.16.96-.58,1.92-1.44,3.22-1.58.24.38.58.77.91,1.15.24.82-.38,1.49-.67,2.06-.48.91-1.06,1.73-1.63,2.59-.05.1.1.38,0,.43-.43.38-2.59,4.37-2.83,5.28-.62.58-1.39,1.06-1.58,2.06.53.67,1.34-.34,2.3,0,2.02-.48,4.18-1.06,6.19-1.58,2.3-1.06,4.75-2.11,6.86-3.36,0,1.01.19,2.26-.14,1.97-.53.19-1.25,1.01-1.73,1.2-.14.05-.58.43-.72.43-.29.1-.43.1-.67.24-.77.34-1.1.86-1.73,1.2-.24.14-.48.19-.72.24-.48.19-1.06.48-1.58.62-.53.14-.67.29-1.39.48-.62.14-2.3.53-3.22,1.1-2.59.29-5.42,1.63-8.3,1.34-.91-.05-1.78-.62-2.78-.67-.62-.62-1.3-1.3-2.3-1.63-.24-.62-.24-1.34,0-1.97-.72-.19-.72.34-1.15.43-.14.34-.86.05-.91.48-.58.34-1.3.67-1.3.48ZM10.85,35.23c.72-.62,2.88-3.36,3.02-4.51.62-.24.82-1.87,1.39-2.11-.05-.53.05-.86.48-.91-.05-.29-.1-.58-.48-.48-.05.34-.38.38-.43.67-1.68.43-1.92,2.21-3.65,2.59-1.1,1.01-4.75,3.79-6.1,4.61,1.15.96,1.87,2.21,3.89,1.97.91-.34,1.49-.96,1.87-1.82Z" fill="#2e3192"/>
  <path d="M54.96,32.69c-.82.43-1.73,1.63-2.5,2.02-.82.38-.62.72-1.44,1.15-.82.43-1.44,1.06-2.26,1.49-.43.19-.96.19-1.39.43-.48.29-.58.53-1.15.48-.82.82-2.3.58-2.98,1.54-1.68.19-2.83.1-4.42.38,0-.48-.96-.1-1.34-.24-.05-.58-.91-.34-.96-.91-.43-.05-.05-1.01-.67-.91-.67-.1-.86.58-1.39.67-.62.19-1.54.67-2.3,1.15-.34.24-1.58.48-2.3.96-.34.19-2.21.72-2.98.67.1,0-.67-.48-1.15-.24-1.1-1.01-1.68-2.54-1.15-4.61.58-.62.91-1.54,1.15-2.54.72-.62,1.15-1.58,1.82-2.3,1.15-1.44,2.69-2.54,3.94-3.89.82-.53,1.58-1.06,2.06-1.87,1.2-.05,1.54-.91,2.3-1.34.91-.43,2.06-.58,2.54-1.39,2.11-.29,3.46-1.34,5.52-1.63,1.68.34,2.4,2.02,1.82,3.94-.38.43-.67.96-1.34,1.15.1.48-.48.34-.48.67-.05.34-.58.19-.91.24-.86-1.2.62-1.73.67-2.78-1.15-.58-1.97.48-3.46.24-.67.48-1.58.58-2.3.91-.67.38-1.06,1.01-1.82,1.15-1.3.77-2.16,2.02-3.7,2.54-.62.91-1.34,1.73-2.06,2.54-.58.19-.72.82-1.15,1.15-.43.34-.48,1.06-1.15,1.15-.38,1.49-1.25,2.4-1.39,4.13,1.39.82,2.64-.38,3.94-.43,0-.43.38-.29.67-.48.29-.14.43-.29.67-.43.43-.24,1.44-.24,1.39-.96.58.05,1.1.05,1.39-.24.53-.05.43-.77,1.15-.67.19-.96.82-1.49.91-2.54.48-.53,1.15-.86,1.15-1.82,1.87-.62,1.92-3.02,4.61-2.78.58.24.58,1.01.91,1.39.14,1.44-1.1,1.49-1.15,2.78-.72.38-1.15,1.15-1.58,1.82-.62.24-.96.72-1.39,1.15-.34.34-1.25.48-.91,1.39-.24.82,1.01.24,1.15.67.38-.19.96-.1,1.39-.19.77-.24,1.34-.05,2.06-.43.72-.34,1.58-.58,2.3-.91,1.39-.62,2.74-1.2,4.13-1.82.58-.67,1.25-1.01,1.92-1.39.96-.53,1.78-1.2,2.88-1.82,0,0,.58,1.68.72,1.63Z" fill="#2e3192"/>
  <path d="M47.81,37.39c0-.91,0-2.26-.1-2.26,1.92-.53,4.18-2.88,5.81-3.74,2.02-1.3,4.75-3.74,6.91-4.85,1.15-.67,2.16-1.49,3.26-2.16.96-.58,1.92-1.44,3.22-1.58.24.38.58.77.91,1.15.24.82-.38,1.49-.67,2.06-.48.91-1.06,1.73-1.63,2.59-.05.1.1.38,0,.43-.43.38-2.59,4.37-2.83,5.28-.62.58-1.39,1.06-1.58,2.06.53.67,1.34-.34,2.3,0,2.02-.48,4.18-1.06,6.19-1.58,2.3-1.06,4.75-2.11,6.86-3.36,0,1.01.19,2.26-.14,1.97-.53.19-1.25,1.01-1.73,1.2-.14.05-.58.43-.72.43-.29.1-.43.1-.67.24-.77.34-1.1.86-1.73,1.2-.24.14-.48.19-.72.24-.48.19-1.06.48-1.58.62-.53.14-.67.29-1.39.48-.62.14-2.3.53-3.22,1.1-2.59.29-5.42,1.63-8.3,1.34-.91-.05-1.78-.62-2.78-.67-.62-.62-1.3-1.3-2.3-1.63-.24-.62-.24-1.34,0-1.97-.72-.19-.72.34-1.15.43-.14.34-.86.05-.91.48-.58.34-1.3.67-1.3.48ZM58.56,35.23c.72-.62,2.88-3.36,3.02-4.51.62-.24.82-1.87,1.39-2.11-.05-.53.05-.86.48-.91-.05-.29-.1-.58-.48-.48-.05.34-.38.38-.43.67-1.68.43-1.92,2.21-3.65,2.59-1.1,1.01-4.75,3.79-6.1,4.61,1.15.96,1.87,2.21,3.89,1.97.91-.34,1.49-.96,1.87-1.82Z" fill="#2e3192"/>
  <path d="M102.67,32.69c-.82.43-1.73,1.63-2.5,2.02-.82.38-.62.72-1.44,1.15-.82.43-1.44,1.06-2.26,1.49-.43.19-.96.19-1.39.43-.48.29-.58.53-1.15.48-.82.82-2.3.58-2.98,1.54-1.68.19-2.83.1-4.42.38,0-.48-.96-.1-1.34-.24-.05-.58-.91-.34-.96-.91-.43-.05-.05-1.01-.67-.91-.67-.1-.86.58-1.39.67-.62.19-1.54.67-2.3,1.15-.34.24-1.58.48-2.3.96-.34.19-2.21.72-2.98.67.1,0-.67-.48-1.15-.24-1.1-1.01-1.68-2.54-1.15-4.61.58-.62.91-1.54,1.15-2.54.72-.62,1.15-1.58,1.82-2.3,1.15-1.44,2.69-2.54,3.94-3.89.82-.53,1.58-1.06,2.06-1.87,1.2-.05,1.54-.91,2.3-1.34.91-.43,2.06-.58,2.54-1.39,2.11-.29,3.46-1.34,5.52-1.63,1.68.34,2.4,2.02,1.82,3.94-.38.43-.67.96-1.34,1.15.1.48-.48.34-.48.67-.05.34-.58.19-.91.24-.86-1.2.62-1.73.67-2.78-1.15-.58-1.97.48-3.46.24-.67.48-1.58.58-2.3.91-.67.38-1.06,1.01-1.82,1.15-1.3.77-2.16,2.02-3.7,2.54-.62.91-1.34,1.73-2.06,2.54-.58.19-.72.82-1.15,1.15-.43.34-.48,1.06-1.15,1.15-.38,1.49-1.25,2.4-1.39,4.13,1.39.82,2.64-.38,3.94-.43,0-.43.38-.29.67-.48.29-.14.43-.29.67-.43.43-.24,1.44-.24,1.39-.96.58.05,1.1.05,1.39-.24.53-.05.43-.77,1.15-.67.19-.96.82-1.49.91-2.54.48-.53,1.15-.86,1.15-1.82,1.87-.62,1.92-3.02,4.61-2.78.58.24.58,1.01.91,1.39.14,1.44-1.1,1.49-1.15,2.78-.72.38-1.15,1.15-1.58,1.82-.62.24-.96.72-1.39,1.15-.34.34-1.25.48-.91,1.39-.24.82,1.01.24,1.15.67.38-.19.96-.1,1.39-.19.77-.24,1.34-.05,2.06-.43.72-.34,1.58-.58,2.3-.91,1.39-.62,2.74-1.2,4.13-1.82.58-.67,1.25-1.01,1.92-1.39.96-.53,1.78-1.2,2.88-1.82,0,0,.58,1.68.72,1.63Z" fill="#2e3192"/>
</svg>